<svg width="231" height="100" fill="none" xmlns="http://www.w3.org/2000/svg"><path d="M0 81.256c0-2.604.436-5.034 1.308-7.29.872-2.256 2.093-4.22 3.663-5.895 1.57-1.674 3.447-2.989 5.633-3.942 2.187-.953 4.582-1.43 7.186-1.43 1.977 0 3.774.29 5.39.872 1.616.581 3.18 1.535 4.691 2.86v-3.034h8.86v35.72h-8.86v-3.035c-1.511 1.325-3.075 2.279-4.691 2.86-1.616.582-3.413.872-5.39.872-2.604 0-5-.476-7.185-1.43-2.187-.953-4.064-2.267-5.634-3.942-1.57-1.674-2.79-3.64-3.663-5.895C.436 86.292 0 83.86 0 81.257zm18.941 10.221c.698 0 1.43-.075 2.198-.227.767-.15 1.54-.407 2.32-.767.779-.36 1.54-.843 2.285-1.448.744-.604 1.453-1.348 2.127-2.232V75.71c-.674-.883-1.383-1.622-2.127-2.215a11.932 11.932 0 0 0-2.285-1.448 9.747 9.747 0 0 0-2.32-.784 11.39 11.39 0 0 0-2.198-.227 9.705 9.705 0 0 0-3.854.767 9.41 9.41 0 0 0-3.122 2.146c-.884.918-1.576 2-2.076 3.244-.5 1.244-.75 2.599-.75 4.063 0 1.466.25 2.82.75 4.064a10.005 10.005 0 0 0 2.076 3.245 9.415 9.415 0 0 0 3.121 2.145 9.717 9.717 0 0 0 3.855.767zM58.88 71.517c-4.198.03-7.845 2.956-7.845 7.298v20.302h-8.86V79.059c.049-8.364 7.292-16.248 16.578-16.36h.248c9.286.112 16.53 7.996 16.579 16.36v20.058h-8.86V78.815c0-4.342-3.648-7.268-7.846-7.298M79.774 81.256c0-2.604.436-5.034 1.308-7.29.872-2.255 2.093-4.22 3.663-5.895 1.57-1.674 3.447-2.989 5.633-3.942 2.186-.953 4.582-1.43 7.186-1.43 1.977 0 3.779.29 5.407.872 1.628.581 3.186 1.523 4.675 2.826v-13.71h8.86v46.43h-8.86v-3c-1.489 1.325-3.047 2.273-4.675 2.843-1.628.57-3.43.854-5.407.854-2.604 0-5-.476-7.186-1.43-2.186-.953-4.064-2.267-5.633-3.942-1.57-1.674-2.79-3.64-3.663-5.895-.872-2.255-1.308-4.686-1.308-7.29zm18.941 10.221c.698 0 1.431-.075 2.198-.226a10.257 10.257 0 0 0 2.32-.768c.779-.36 1.54-.843 2.285-1.448.744-.604 1.453-1.348 2.128-2.232V75.71c-.675-.883-1.384-1.622-2.128-2.215a11.951 11.951 0 0 0-2.285-1.448 9.753 9.753 0 0 0-2.32-.784c-.767-.152-1.5-.227-2.198-.227a9.706 9.706 0 0 0-3.854.767 9.408 9.408 0 0 0-3.122 2.146c-.884.918-1.576 2-2.076 3.244-.5 1.244-.75 2.599-.75 4.063 0 1.466.25 2.82.75 4.064a10.004 10.004 0 0 0 2.076 3.245 9.413 9.413 0 0 0 3.122 2.145 9.713 9.713 0 0 0 3.854.767zM157.998 91.477c1.325 0 2.575-.25 3.75-.75a9.223 9.223 0 0 0 3.069-2.11c.873-.907 1.559-1.983 2.059-3.227.5-1.244.75-2.621.75-4.134 0-1.488-.256-2.854-.768-4.098-.512-1.244-1.209-2.32-2.093-3.227a9.699 9.699 0 0 0-3.07-2.128 9.08 9.08 0 0 0-3.697-.767 9.283 9.283 0 0 0-3.75.767 9.452 9.452 0 0 0-3.07 2.128c-.872.907-1.564 1.983-2.075 3.227-.512 1.244-.768 2.61-.768 4.099 0 1.511.25 2.889.75 4.133.5 1.244 1.186 2.32 2.059 3.227a9.223 9.223 0 0 0 3.069 2.11c1.174.5 2.436.75 3.785.75zm0 8.337c-2.581 0-5.012-.465-7.291-1.395-2.279-.93-4.273-2.227-5.982-3.89-1.709-1.662-3.058-3.628-4.047-5.895-.988-2.267-1.482-4.726-1.482-7.378 0-2.58.494-5 1.482-7.255.989-2.256 2.332-4.22 4.03-5.895 1.697-1.675 3.691-2.994 5.982-3.96 2.291-.964 4.727-1.447 7.308-1.447 2.581 0 5.011.483 7.29 1.448s4.268 2.284 5.965 3.959c1.698 1.674 3.041 3.64 4.029 5.895.989 2.256 1.482 4.674 1.482 7.255 0 2.652-.493 5.11-1.482 7.378-.988 2.267-2.337 4.233-4.046 5.895a18.583 18.583 0 0 1-5.965 3.89c-2.267.93-4.692 1.395-7.273 1.395zM185.165 60.6a5.01 5.01 0 0 1-2.036-.421 5.446 5.446 0 0 1-2.826-2.827 5.006 5.006 0 0 1-.421-2.036c0-.717.14-1.402.421-2.052a5.38 5.38 0 0 1 2.826-2.843 5.015 5.015 0 0 1 2.036-.42c.718 0 1.402.14 2.052.42.635.27 1.211.658 1.7 1.144a5.414 5.414 0 0 1 1.144 1.699c.28.65.42 1.335.42 2.053 0 .717-.14 1.396-.42 2.036a5.4 5.4 0 0 1-2.844 2.826 5.126 5.126 0 0 1-2.052.42zM180.734 63.397h8.861v35.72h-8.861v-35.72zM193.668 81.256c0-2.604.436-5.034 1.309-7.29.872-2.255 2.092-4.22 3.662-5.895 1.57-1.674 3.448-2.989 5.634-3.942 2.186-.953 4.581-1.43 7.186-1.43 1.976 0 3.779.29 5.406.872 1.628.581 3.186 1.523 4.675 2.826v-13.71h8.86v46.43h-8.86v-3c-1.489 1.325-3.047 2.273-4.675 2.843-1.628.57-3.43.854-5.406.854-2.605 0-5-.476-7.186-1.43-2.186-.953-4.064-2.267-5.634-3.942-1.57-1.674-2.79-3.64-3.662-5.895-.873-2.255-1.309-4.686-1.309-7.29zm18.942 10.221c.697 0 1.43-.075 2.197-.226a10.24 10.24 0 0 0 2.32-.768 10.86 10.86 0 0 0 2.285-1.448c.744-.604 1.453-1.348 2.128-2.232V75.71c-.675-.883-1.384-1.622-2.128-2.215a11.92 11.92 0 0 0-2.285-1.448 9.738 9.738 0 0 0-2.32-.784c-.767-.152-1.5-.227-2.197-.227a9.71 9.71 0 0 0-3.855.767 9.418 9.418 0 0 0-3.122 2.146c-.883.918-1.575 2-2.075 3.244-.5 1.244-.75 2.599-.75 4.063 0 1.466.25 2.82.75 4.064a10.015 10.015 0 0 0 2.075 3.245 9.423 9.423 0 0 0 3.122 2.145 9.717 9.717 0 0 0 3.855.767zM138.352 71.41c-5.938 0-8.557 3.063-8.557 7.405v20.302h-8.86V79.059c.05-8.364 4.881-16.587 17.417-16.587" fill="#fff"/><path fill-rule="evenodd" clip-rule="evenodd" d="M153 41.994H76c.95-11.045 8.07-20.558 18.315-26.068L86.989 5.083a3.216 3.216 0 0 1-.557-2.433A3.217 3.217 0 0 1 87.776.554a3.165 3.165 0 0 1 2.429-.488 3.165 3.165 0 0 1 2.039 1.416l7.98 11.814a43.293 43.293 0 0 1 28.558 0l7.98-11.814a3.163 3.163 0 0 1 3.27-1.333 3.161 3.161 0 0 1 2.009 1.378 3.218 3.218 0 0 1-.03 3.555l-7.313 10.838C144.942 21.424 152.049 30.937 153 42v-.006zm-50.482-15.017a4.308 4.308 0 0 0-1.244-3.035 4.24 4.24 0 0 0-3.009-1.258 4.24 4.24 0 0 0-3.01 1.254 4.307 4.307 0 0 0-.002 6.066 4.24 4.24 0 0 0 3.01 1.256c1.128 0 2.21-.452 3.009-1.256a4.307 4.307 0 0 0 1.246-3.033v.006zm33.021 0a4.324 4.324 0 0 0-1.248-3.038 4.231 4.231 0 0 0-6.028 0 4.33 4.33 0 0 0-1.249 3.038c0 1.14.45 2.232 1.249 3.037a4.244 4.244 0 0 0 3.014 1.259c1.13 0 2.214-.453 3.014-1.259a4.314 4.314 0 0 0 1.248-3.037z" fill="#fff"/></svg>