<svg width="484" height="315" fill="none" xmlns="http://www.w3.org/2000/svg"><path d="M385.54 152.92s22.171-3.6 20.676 10.005H385.54V152.92z" fill="#F4A28C"/><path d="m336.325 128.17-6.698 32.625h37.614l-5.128-37.5-25.788 4.875z" fill="#C9C9C9"/><path d="M423.334 22.855H274.118V124.54h149.216V22.855z" fill="#24285B"/><path d="M373.49 90.085h-46.943v4.425h46.943v-4.425z" fill="#7B10E7"/><path d="M394.405 101.695h-46.943v4.425h46.943v-4.425z" fill="#FFD200"/><path d="M423.334 115.795H274.118v19.245h149.216v-19.245z" fill="#E6E6E6"/><path d="M354.638 79.39h-39.393v4.425h39.393V79.39zM402.224 79.39h-39.393v4.425h39.393V79.39z" fill="#7B10E7"/><path d="M361.77 67.075h-35.223V71.5h35.223v-4.425zM406.156 67.075h-35.222V71.5h35.222v-4.425z" fill="#FFD200"/><path d="M318.295 90.085h-17.656v4.425h17.656v-4.425zM335.876 101.695H318.22v4.425h17.656v-4.425zM306.993 79.39h-17.656v4.425h17.656V79.39z" fill="#fff"/><path opacity=".14" d="M293.612 58.555s72.897-7.35 56.81 76.5l5.547 20.445-22.754-12.39 1.824-8.04h-12.05l-29.377-76.515z" fill="#000"/><path d="M293.612 34.93a2.081 2.081 0 0 0 2.078-2.085c0-1.151-.93-2.085-2.078-2.085a2.082 2.082 0 0 0-2.078 2.085c0 1.151.931 2.085 2.078 2.085z" fill="#7B10E7"/><path d="M299.443 34.93a2.082 2.082 0 0 0 2.078-2.085 2.082 2.082 0 0 0-2.078-2.085 2.081 2.081 0 0 0-2.078 2.085c0 1.151.93 2.085 2.078 2.085z" fill="#FFD200"/><path d="M306.993 45.745h-17.656v4.425h17.656v-4.425zM318.295 56.815h-17.656v4.425h17.656v-4.425z" fill="#fff"/><path d="M361.77 56.815h-35.223v4.425h35.223v-4.425zM406.156 56.815h-35.222v4.425h35.222v-4.425z" fill="#FFD200"/><path d="M318.295 67.075h-17.656V71.5h17.656v-4.425z" fill="#fff"/><path d="M350.422 45.745h-36.373v4.425h36.373v-4.425zM383.851 45.745h-25.819v4.425h25.819v-4.425z" fill="#7B10E7"/><path d="M350.422 130.3c3.064 0 5.547-2.491 5.547-5.565 0-3.073-2.483-5.565-5.547-5.565-3.063 0-5.546 2.492-5.546 5.565 0 3.074 2.483 5.565 5.546 5.565z" fill="#A5A5A5"/><path d="M139.328 155.545H64.324v5.25h75.004v-5.25z" fill="#C9C9C9"/><path d="M94.224 152.92s-22.17-3.6-20.676 10.005h20.676V152.92z" fill="#F4A28C"/><path d="m135.456 128.17-6.697 32.625h37.614l-5.128-37.5-25.789 4.875z" fill="#C9C9C9"/><path d="M216.216 22.855H67V124.54h149.216V22.855z" fill="#24285B"/><path d="M166.373 90.085H119.43v4.425h46.943v-4.425z" fill="#7B10E7"/><path d="M216.216 115.795H67v19.245h149.216v-19.245z" fill="#E6E6E6"/><path d="M147.521 79.39h-39.393v4.425h39.393V79.39z" fill="#7B10E7"/><path d="M154.652 67.075H119.43V71.5h35.222v-4.425z" fill="#FFD200"/><path d="M111.177 90.085H93.521v4.425h17.656v-4.425zM128.759 101.695h-17.656v4.425h17.656v-4.425zM99.875 79.39H82.22v4.425h17.656V79.39zM80.32 34.93a2.082 2.082 0 0 0 2.079-2.085c0-1.151-.93-2.085-2.078-2.085a2.082 2.082 0 0 0-2.078 2.085c0 1.151.93 2.085 2.078 2.085z" fill="#fff"/><path d="M86.495 34.93a2.082 2.082 0 0 0 2.078-2.085c0-1.151-.93-2.085-2.078-2.085a2.082 2.082 0 0 0-2.078 2.085c0 1.151.93 2.085 2.078 2.085z" fill="#7B10E7"/><path d="M92.326 34.93a2.082 2.082 0 0 0 2.078-2.085c0-1.151-.93-2.085-2.078-2.085a2.081 2.081 0 0 0-2.078 2.085c0 1.151.93 2.085 2.078 2.085z" fill="#FFD200"/><path d="M99.875 45.745H82.22v4.425h17.656v-4.425zM111.177 56.815H93.521v4.425h17.656v-4.425z" fill="#fff"/><path d="M154.652 56.815H119.43v4.425h35.222v-4.425z" fill="#FFD200"/><path d="M111.177 67.075H93.521V71.5h17.656v-4.425z" fill="#fff"/><path d="M143.305 45.745h-36.373v4.425h36.373v-4.425z" fill="#7B10E7"/><path opacity=".45" d="M242.109 314.635c133.345 0 241.443-14.056 241.443-31.395s-108.098-31.395-241.443-31.395C108.764 251.845.667 265.901.667 283.24s108.097 31.395 241.442 31.395z" fill="#E6E6E6"/><path d="M205.572 55.21s-52.041 3.585-56.033 32.58c-2.212 16.11 2.183 30.675 6.533 40.5a10.534 10.534 0 0 1-.426 9.403 10.495 10.495 0 0 1-3.26 3.563 10.448 10.448 0 0 1-4.506 1.719l-53.656 7.5V163l74.66-2.22a30.88 30.88 0 0 0 20.315-8.448 31.076 31.076 0 0 0 9.585-19.857l6.788-77.265zM274.118 55.21s52.041 3.585 56.032 32.58c2.213 16.11-2.182 30.675-6.533 40.5a10.534 10.534 0 0 0 .427 9.403 10.485 10.485 0 0 0 3.26 3.563 10.438 10.438 0 0 0 4.506 1.719l53.655 7.5V163l-74.675-2.295a30.896 30.896 0 0 1-20.311-8.452 31.088 31.088 0 0 1-9.589-19.853l-6.772-77.19z" fill="#7B10E7"/><path opacity=".46" d="M205.572 55.21s-52.041 3.585-56.033 32.58c-2.212 16.11 2.183 30.675 6.533 40.5a10.534 10.534 0 0 1-.426 9.403 10.495 10.495 0 0 1-3.26 3.563 10.448 10.448 0 0 1-4.506 1.719l-53.656 7.5V163l74.66-2.22a30.88 30.88 0 0 0 20.315-8.448 31.076 31.076 0 0 0 9.585-19.857l6.788-77.265zM274.118 55.21s52.041 3.585 56.032 32.58c2.213 16.11-2.182 30.675-6.533 40.5a10.534 10.534 0 0 0 .427 9.403 10.485 10.485 0 0 0 3.26 3.563 10.438 10.438 0 0 0 4.506 1.719l53.655 7.5V163l-74.675-2.295a30.896 30.896 0 0 1-20.311-8.452 31.088 31.088 0 0 1-9.589-19.853l-6.772-77.19z" fill="#fff"/><path d="M436.833 172.375H44.396v110.88h392.437v-110.88z" fill="#C9C9C9"/><path d="M436.833 160.795H44.396V187.9h392.437v-27.105z" fill="#E6E6E6"/><path d="m235.039 55.21 6.353-27.795s.21-13.02 8.537-9.99c8.327 3.03 10.824 18.12 6.339 23.22-4.485 5.1-7.475-1.86-7.475-1.86V54.16l-13.754 1.05z" fill="#F4A28C"/><path opacity=".1" d="M344.876 161.725s-34.49 7.365-20.078 21.33c14.412 13.965 6.459 33.6-3.528 39.27-9.987 5.67-51.353 12.51-38.137 60.345h-46.629l-3.439-25.5-29.9-31.68 13.066-30.555 36.762-50.145 24.907 20.715 13.635-4.71 53.341.93z" fill="#000"/><path d="M226.741 53.935s-51.876-4.635-58.649 30.51c-6.772 35.145 41.501 101.475 41.501 101.475l67.275-2.625s104.516-147.3-50.127-129.36zM233.05 257.125s2.99 3.96 1.031 7.71c-1.958 3.75.867 6.93 3.828 4.32 2.96-2.61 4.186-13.5 4.186-13.5l-6.683-3.915-2.362 5.385z" fill="#7B10E7"/><path d="M209.593 185.92s-4.485 23.625 5.607 24.75c10.091 1.125 81.477 4.32 93.437-5.715 11.96-10.035 8.97-23.91-31.769-21.66l-67.275 2.625z" fill="#24285B"/><path d="M209.011 190s-31.186 24.45-15.115 42.45c16.071 18 39.244 28.5 39.244 28.5l3.364-8.625s-48.588-37.875-2.617-45.375L209.011 190z" fill="#24285B"/><path d="M248.927 110.425h-18.344c-18.891 0-34.206 15.366-34.206 34.32s15.315 34.32 34.206 34.32h18.344c18.891 0 34.205-15.366 34.205-34.32s-15.314-34.32-34.205-34.32z" fill="#FFD200"/><path d="M247.91 144.745h-17.073v68.745h17.073v-68.745z" fill="#FFD200"/><path opacity=".08" d="M247.91 144.745h-17.073v68.745h17.073v-68.745z" fill="#000"/><path d="M274.118 204.955h-68.546v20.535h68.546v-20.535z" fill="#FFD200"/><path d="m236.997 36.52.104-6.585a11.303 11.303 0 0 0-3.199-8.22 4.21 4.21 0 0 1-.718-5.91c3.439-4.935 6.339-1.74 9.808-6.105 3.468-4.365 6.084-5.22 10.136 0 4.051 5.22 7.236-.87 9.553 5.52 2.317 6.39.284 9.585-8.686 10.17-7.625.495-5.263 9.165-12.334 13.725a2.983 2.983 0 0 1-4.28-1.01 2.998 2.998 0 0 1-.384-1.585z" fill="#24285B"/><path d="M244.831 225.475h-10.884v47.445h10.884v-47.445z" fill="#FFD200"/><path opacity=".08" d="M244.831 225.475h-10.884v47.445h10.884v-47.445z" fill="#000"/><path d="m233.947 272.92-21.05 19.5h54.628l-22.709-19.5h-10.869z" fill="#FFD200"/><path d="M417.144 197.545h-40.365v70.125h40.365v-70.125z" fill="#A5A5A5"/><path d="M367.316 187.9h-9.463v95.355h9.463V187.9zM436.833 187.9h-9.463v95.355h9.463V187.9z" fill="#E6E6E6"/><path d="M436.849 267.67h-70.46v15.57h70.46v-15.57zM64.324 187.9H44.396v95.355h19.928V187.9z" fill="#E6E6E6"/><path opacity=".42" d="M121.134 256.285h-56.81v11.385h56.81v-11.385z" fill="#A5A5A5"/><path d="M149.898 267.22H64.324v16.02h85.574v-16.02z" fill="#A5A5A5"/><path d="M176.733 45.745h-25.818v4.425h25.818v-4.425z" fill="#7B10E7"/><path d="M147.162 130.3c3.063 0 5.547-2.491 5.547-5.565 0-3.073-2.484-5.565-5.547-5.565-3.063 0-5.546 2.492-5.546 5.565 0 3.074 2.483 5.565 5.546 5.565z" fill="#A5A5A5"/><path d="M287.438 34.93a2.081 2.081 0 0 0 2.078-2.085c0-1.151-.93-2.085-2.078-2.085a2.081 2.081 0 0 0-2.078 2.085c0 1.151.93 2.085 2.078 2.085z" fill="#fff"/><path d="M449.691.25h-57.932v39.96h57.932V.25z" fill="#FFD200"/><path d="M412.943 28.075c-.298.001-.588-.1-.822-.285l-8.641-6.885a1.365 1.365 0 0 1-.015-2.115l8.686-7.005a1.343 1.343 0 0 1 2.152 1.199 1.35 1.35 0 0 1-.463.901l-7.385 6 7.37 5.835a1.33 1.33 0 0 1 .465 1.422c-.048.17-.13.33-.24.468a1.318 1.318 0 0 1-1.107.465zM428.671 28.075a1.315 1.315 0 0 1-1.047-.51 1.332 1.332 0 0 1-.282-.992 1.34 1.34 0 0 1 .507-.898l7.355-5.835-7.37-6a1.347 1.347 0 0 1-.557-1.472 1.348 1.348 0 0 1 1.76-.922c.176.064.336.164.471.294l8.701 7.005a1.378 1.378 0 0 1 .357 1.647 1.365 1.365 0 0 1-.372.468l-8.686 6.885c-.233.203-.529.32-.837.33zM417.174 28.075a1.3 1.3 0 0 1-.568-.12 1.349 1.349 0 0 1-.657-1.785l6.323-13.905a1.351 1.351 0 0 1 1.787-.668 1.352 1.352 0 0 1 .665 1.793l-6.294 13.905a1.314 1.314 0 0 1-1.256.78z" fill="#fff"/><path opacity=".58" d="M89.53 239.305s-13.77-3.78-16.774-16.635c0 0 21.349-4.32 21.947 17.775l-5.173-1.14z" fill="#7B10E7"/><path opacity=".73" d="M91.145 238s-9.628-15.27-1.152-29.535c0 0 16.221 10.335 8.97 29.565l-7.818-.03z" fill="#7B10E7"/><path d="M93.626 238s5.084-16.11 20.452-19.17c0 0 2.87 10.5-9.957 19.215L93.626 238z" fill="#7B10E7"/><path d="m83.64 237.58 2.78 19.17 17.582.075 2.601-19.14-22.963-.105z" fill="#24285B"/><path d="M403.794 218.785c2.857 0 5.173-2.324 5.173-5.19 0-2.866-2.316-5.19-5.173-5.19s-5.173 2.324-5.173 5.19c0 2.866 2.316 5.19 5.173 5.19z" fill="#fff"/><path opacity=".18" d="M411.822 225.475h-28.151v35.445h28.151v-35.445z" fill="#fff"/></svg>