<svg width="530" height="356" fill="none" xmlns="http://www.w3.org/2000/svg"><path d="M389.199 115.6s70.5-21.63 80.229 25.098c9.729 46.728-10.117 98.824-10.117 98.824h-114.81L389.199 115.6z" fill="#FFD200"/><path d="M295.486 93.776s-37.347-1.76-44.697 35.306c-7.349 37.065 5.182 88.598 5.182 88.598l-56.312 15.118 2.838 6.706h80.335l24.675-57.728-12.021-88z" fill="#7B10E7"/><path opacity=".46" d="M295.486 93.776s-37.347-1.76-44.697 35.306c-7.349 37.065 5.182 88.598 5.182 88.598l-56.312 15.118 2.838 6.706h80.335l24.675-57.728-12.021-88z" fill="#fff"/><path d="M320.302 44.531s-.546 11.863 1.763 19.642a5.969 5.969 0 0 0 5.131 4.222c.782.078 1.572 0 2.324-.227 3.913-1.214 8.813-3.995 9.906-10.313l3.119-10.56c.405-2.17.126-4.413-.799-6.417a10.671 10.671 0 0 0-4.365-4.777c-6.856-4.488-17.114 1.197-17.079 8.43z" fill="#F4A28C"/><path d="m341.734 52.715 4.424 38.65-21.52.898 5.429-28.477 11.667-11.07z" fill="#F4A28C"/><path d="M323.281 44.9c3.675.002 7.337-.429 10.91-1.284a9.885 9.885 0 0 0 .441 10.86 8.099 8.099 0 0 0 9.869 2.816l-.81-15.242a12.17 12.17 0 0 0-6.574-10.56 44.595 44.595 0 0 0-5.288-2.27c-4.459-1.585-10.786 1.618-14.84-1.18a2.858 2.858 0 0 0-4.459 2.06c-.511 4.663.617 11.914 7.05 14.185 1.187.424 2.44.632 3.701.616z" fill="#24285B"/><path d="M333.345 54.176s0-4.576 3.348-4.365c3.349.212 3.631 6.812-1.004 7.621l-2.344-3.256zM320.355 52.029l-3.119 4.699a1.902 1.902 0 0 0-.16 1.829 1.909 1.909 0 0 0 1.464 1.11l4.582.669-2.767-8.307z" fill="#F4A28C"/><path opacity=".31" d="M330.366 64.7a14.116 14.116 0 0 0 7.773-2.305s-.317 7.18-9.623 12.074l1.85-9.768z" fill="#CE8172"/><path d="M295.486 93.776s83.772-16.034 112.395 0c28.623 16.034-31.425 165.194-31.425 165.194l-88.231-2.781s-77.198-147.083 7.261-162.413z" fill="#7B10E7"/><path d="M529.018.848H427.092v69.978h101.926V.848z" fill="#FFD200"/><path d="M464.352 49.565a2.31 2.31 0 0 1-1.463-.51l-15.281-12.057a2.339 2.339 0 0 1 0-3.678L462.889 21a2.362 2.362 0 0 1 3.322.36 2.365 2.365 0 0 1 .231 2.613c-.149.271-.35.511-.592.705l-12.972 10.42 12.954 10.225a2.367 2.367 0 0 1 .933 1.612 2.35 2.35 0 0 1-.527 1.785 2.31 2.31 0 0 1-1.886.845zM492.023 49.565a2.311 2.311 0 0 1-1.851-.898 2.356 2.356 0 0 1 .388-3.309l12.954-10.225-12.972-10.42a2.357 2.357 0 0 1-.361-3.317 2.364 2.364 0 0 1 3.322-.36l15.281 12.32a2.339 2.339 0 0 1 0 3.678L493.503 49.09a2.31 2.31 0 0 1-1.48.475zM471.772 49.565a2.423 2.423 0 0 1-.97-.211 2.357 2.357 0 0 1-1.163-3.115l11.122-24.341a2.365 2.365 0 0 1 4.362.15c.22.585.197 1.234-.062 1.803l-11.139 24.341a2.338 2.338 0 0 1-2.15 1.373z" fill="#fff"/><path d="M485.343 249.871H38.021v105.828h447.322V249.871z" fill="#C9C9C9"/><path d="M485.343 239.434H38.021v19.096h447.322v-19.096z" fill="#E6E6E6"/><path d="M177.17 13.185H.25v139.551h176.92V13.186z" fill="#24285B"/><path d="M108.785 90.714H51.962v6.353h56.823v-6.353z" fill="#7B10E7"/><path d="M119.078 73.026H68.265v6.353h50.813v-6.353zM116.417 122.2H89.909v6.354h26.508V122.2z" fill="#FFD200"/><path d="M135.98 106.061H68.265v6.354h67.715v-6.354z" fill="#7B10E7"/><path d="M56.35 106.061H30.882v6.354H56.35v-6.354zM81.713 122.746H56.245v6.353h25.468v-6.353zM40.047 90.714H14.58v6.353h25.468v-6.353zM11.83 26.878a2.994 2.994 0 0 0 2.996-2.991 2.994 2.994 0 0 0-2.996-2.992 2.994 2.994 0 0 0-2.996 2.992 2.994 2.994 0 0 0 2.996 2.991z" fill="#fff"/><path d="M20.748 26.878a2.994 2.994 0 0 0 2.996-2.991 2.994 2.994 0 0 0-2.996-2.992 2.994 2.994 0 0 0-2.996 2.992 2.994 2.994 0 0 0 2.996 2.991z" fill="#7B10E7"/><path d="M29.155 26.878a2.994 2.994 0 0 0 2.996-2.991 2.994 2.994 0 0 0-2.996-2.992 2.994 2.994 0 0 0-2.996 2.992 2.994 2.994 0 0 0 2.996 2.991z" fill="#FFD200"/><path d="M40.047 42.419H14.58v6.354h25.468v-6.354zM56.35 58.294H30.882v6.354H56.35v-6.354z" fill="#fff"/><path d="M119.078 58.294H68.265v6.354h50.813v-6.354z" fill="#FFD200"/><path d="M56.35 73.026H30.882v6.353H56.35v-6.353z" fill="#fff"/><path d="M102.704 42.419h-52.47v6.354h52.47v-6.354zM150.909 42.419h-37.242v6.354h37.242v-6.354z" fill="#7B10E7"/><path d="M319.95 228.856s-38.476-11.123-33.858 10.56h33.858v-10.56z" fill="#F4A28C"/><path d="M309.551 233.467h-72.773v5.967h72.773v-5.967zM278.849 87.599H125.758v115.737h153.091V87.599z" fill="#E6E6E6"/><path opacity=".08" d="M370.71 101.379s-30.051 21.877-16.391 62.146c20.357 59.998-81.816 57.006-81.816 57.006l8.319 20.029 117.259-10.05 10.205-40.48-37.576-88.651z" fill="#000"/><path d="m188.256 159.793-16.462 79.64h81.446v-10.577l-40.714-2.605-3.472-66.458h-20.798z" fill="#C9C9C9"/><path d="M369.547 106.131a21.132 21.132 0 0 1 8.993-14.803 21.17 21.17 0 0 1 17.057-3.114c16.32 4.048 36.818 16.861 39.885 55.264 5.199 65.12-13.289 95.955-13.289 95.955H319.95V226.48l70.976-8.659s-26.913-66.792-21.379-111.69z" fill="#7B10E7"/><path opacity=".46" d="M369.547 106.131a21.132 21.132 0 0 1 8.993-14.803 21.17 21.17 0 0 1 17.057-3.114c16.32 4.048 36.818 16.861 39.885 55.264 5.199 65.12-13.289 95.955-13.289 95.955H319.95V226.48l70.976-8.659s-26.913-66.792-21.379-111.69z" fill="#fff"/><path opacity=".58" d="M77.078 222.344s-14.435-3.942-17.625-17.371c0 0 22.383-4.523 23.018 18.55l-5.393-1.179z" fill="#7B10E7"/><path opacity=".73" d="M78.858 220.901s-10.1-15.928-1.217-30.836c0 0 17.026 10.807 9.465 30.871l-8.248-.035z" fill="#7B10E7"/><path d="M81.449 220.918s5.287-16.825 21.467-20.011c0 0 3.014 10.912-10.452 20.064l-11.015-.053z" fill="#7B10E7"/><path d="m70.98 220.531 2.925 20.011 18.436.088 2.732-19.993-24.093-.106z" fill="#24285B"/></svg>