<svg width="50" height="50" fill="none" xmlns="http://www.w3.org/2000/svg"><path d="M25.019 0c-4.94 0-9.77 1.466-13.879 4.213a24.996 24.996 0 0 0-9.2 11.22 25.018 25.018 0 0 0 5.414 27.245 24.964 24.964 0 0 0 27.224 5.42 24.985 24.985 0 0 0 11.212-9.209 25.013 25.013 0 0 0-3.107-31.567A24.972 24.972 0 0 0 25.02 0zm0 43.92a18.908 18.908 0 0 1-10.515-3.186A18.945 18.945 0 0 1 11.63 11.6 18.914 18.914 0 0 1 32.252 7.5a18.92 18.92 0 0 1 8.49 6.978A18.943 18.943 0 0 1 43.924 25a18.958 18.958 0 0 1-5.547 13.37 18.93 18.93 0 0 1-13.36 5.55z" fill="#fff"/><path d="M21.981 28.639a4.532 4.532 0 0 0 6.057 0v-7.256a4.523 4.523 0 0 0-6.057 0v7.256z" fill="#fff"/><path d="M25.018 12.139a12.826 12.826 0 0 0-9.098 3.772l4.278 4.28a6.804 6.804 0 0 1 9.622 0l4.281-4.284a12.831 12.831 0 0 0-9.082-3.768zM29.824 29.824a6.799 6.799 0 0 1-9.626 0l-4.274 4.287a12.849 12.849 0 0 0 9.089 3.77 12.84 12.84 0 0 0 9.089-3.77l-4.278-4.287z" fill="#fff"/><path d="M24.994 50a6.392 6.392 0 0 0-4.423-6.593h-.021a18.946 18.946 0 0 1-9.383-5.556 18.968 18.968 0 0 1-4.77-9.81H18.94a6.544 6.544 0 0 1 0-6.06H6.397A18.884 18.884 0 0 1 17.1 7.828a18.85 18.85 0 0 1 17.71.994 6.032 6.032 0 0 0 7.867-1.466 24.977 24.977 0 0 0-22.54-6.88A24.973 24.973 0 0 0 9.152 5.658 24.998 24.998 0 0 0 .119 27.442a25.012 25.012 0 0 0 4.09 11.447 24.988 24.988 0 0 0 9 8.163A24.966 24.966 0 0 0 24.995 50z" fill="#fff"/></svg>