<svg width="50" height="50" fill="none" xmlns="http://www.w3.org/2000/svg"><g clip-path="url(#a)"><path d="M24.997.247C11.165.274-.027 11.508 0 25.34.022 37.04 8.14 47.163 19.554 49.728a1.044 1.044 0 0 0 1.269-1.018v-5.677c0-.577-.468-1.044-1.044-1.044h-2.087c-2.605 0-4.383-2.469-5.942-4.648l-.48-.663c.702.392 1.373.837 2.008 1.331a7.081 7.081 0 0 0 4.284 1.879 2.876 2.876 0 0 0 3.26-3.117v-.728c0-.466-.309-.876-.757-1.004-5.79-1.638-9.678-5.975-9.678-10.79a9.898 9.898 0 0 1 2.974-6.91c.3-.31.38-.773.198-1.165-.759-1.72-.645-3.7.307-5.32a10.27 10.27 0 0 1 3.826 2.688c.283.336.746.459 1.158.307a18.131 18.131 0 0 1 12.3 0c.41.149.87.026 1.151-.307a10.27 10.27 0 0 1 3.824-2.69 5.844 5.844 0 0 1 .307 5.32c-.181.392-.102.854.198 1.164a9.896 9.896 0 0 1 2.976 6.913c0 5.055-4.318 9.582-10.504 11.007a1.044 1.044 0 0 0-.689 1.505 8.962 8.962 0 0 1 .758 4.185v7.764a1.044 1.044 0 0 0 1.269 1.018c13.495-3.033 21.977-16.431 18.945-29.927C46.82 8.387 36.695.27 24.997.247z" fill="#fff"/></g><defs><clipPath id="a"><path fill="#fff" d="M0 0h50v50H0z"/></clipPath></defs></svg>