<svg width="45" height="30" fill="none" xmlns="http://www.w3.org/2000/svg"><path d="M12.414 8.412c2.296 0 4.186.77 5.67 2.31 1.512 1.54 2.268 3.668 2.268 6.384V30h-5.418V17.778c0-1.4-.378-2.464-1.134-3.192-.756-.756-1.764-1.134-3.024-1.134-1.4 0-2.52.434-3.36 1.302-.84.868-1.26 2.17-1.26 3.906V30H.738V.6h5.418v10.752c1.316-1.96 3.402-2.94 6.258-2.94zm24.24 0c2.296 0 4.186.77 5.67 2.31 1.512 1.54 2.268 3.668 2.268 6.384V30h-5.418V17.778c0-1.4-.378-2.464-1.134-3.192-.756-.756-1.764-1.134-3.024-1.134-1.4 0-2.52.434-3.36 1.302-.84.868-1.26 2.17-1.26 3.906V30h-5.418V.6h5.418v10.752c1.316-1.96 3.402-2.94 6.258-2.94z" fill="#fff"/></svg>