<svg width="40" height="40" fill="none" xmlns="http://www.w3.org/2000/svg"><path d="M20 9.985A10 10 0 0 0 9.985 20 10 10 0 0 0 20 30.015 10 10 0 0 0 30.015 20 10 10 0 0 0 20 9.985zm0 16.524c-3.584 0-6.509-2.925-6.509-6.509 0-3.584 2.925-6.509 6.509-6.509 3.584 0 6.509 2.925 6.509 6.509 0 3.584-2.925 6.509-6.509 6.509zM30.425 7.24a2.336 2.336 0 0 0-2.34 2.34 2.336 2.336 0 0 0 2.34 2.338 2.333 2.333 0 0 0 2.339-2.339 2.338 2.338 0 0 0-2.34-2.339zM39.522 20c0-2.695.024-5.366-.127-8.057-.152-3.125-.865-5.898-3.15-8.183-2.29-2.29-5.058-2.998-8.183-3.15C25.365.46 22.694.483 20.005.483c-2.695 0-5.366-.024-8.057.127-3.125.152-5.898.865-8.183 3.15C1.475 6.05.767 8.818.615 11.943.464 14.64.488 17.31.488 20c0 2.69-.024 5.366.127 8.057.152 3.125.864 5.898 3.15 8.183 2.29 2.29 5.058 2.998 8.183 3.15 2.695.151 5.366.127 8.057.127 2.695 0 5.366.024 8.056-.127 3.125-.152 5.899-.865 8.184-3.15 2.29-2.29 2.998-5.058 3.15-8.183.156-2.69.127-5.362.127-8.057zm-4.297 11.514a6.204 6.204 0 0 1-1.475 2.236 6.247 6.247 0 0 1-2.236 1.475c-2.569 1.02-8.667.79-11.514.79-2.847 0-8.95.23-11.519-.785a6.206 6.206 0 0 1-2.236-1.475 6.247 6.247 0 0 1-1.474-2.237C3.755 28.945 3.984 22.848 3.984 20c0-2.847-.23-8.95.787-11.519a6.205 6.205 0 0 1 1.474-2.236 6.312 6.312 0 0 1 2.236-1.474C11.05 3.755 17.153 3.984 20 3.984c2.847 0 8.95-.23 11.518.787a6.205 6.205 0 0 1 2.237 1.474 6.248 6.248 0 0 1 1.474 2.236c1.016 2.569.787 8.672.787 11.519 0 2.847.23 8.945-.791 11.514z" fill="#fff"/></svg>