<svg width="50" height="50" fill="none" xmlns="http://www.w3.org/2000/svg"><path d="M44.956 14.281c.292-.969 0-1.679-1.38-1.679h-4.568c-1.162 0-1.694.615-1.985 1.29 0 0-2.323 5.664-5.615 9.337-1.062 1.069-1.548 1.406-2.127 1.406-.29 0-.71-.337-.71-1.306v-9.048c0-1.162-.336-1.679-1.305-1.679h-7.179c-.725 0-1.162.538-1.162 1.05 0 1.1 1.646 1.354 1.814 4.454v6.725c0 1.473-.264 1.742-.848 1.742-1.547 0-5.314-5.686-7.55-12.194-.435-1.264-.874-1.775-2.041-1.775H5.733c-1.306 0-1.566.615-1.566 1.29 0 1.212 1.547 7.212 7.21 15.148 3.775 5.418 9.09 8.356 13.931 8.356 2.902 0 3.26-.652 3.26-1.777v-4.096c0-1.304.278-1.567 1.196-1.567.675 0 1.838.342 4.548 2.952 3.096 3.096 3.609 4.486 5.348 4.486h4.567c1.304 0 1.956-.652 1.581-1.94-.41-1.281-1.89-3.146-3.852-5.352-1.067-1.258-2.66-2.612-3.146-3.29-.677-.872-.481-1.258 0-2.033.002.002 5.567-7.835 6.146-10.5z" fill="#fff"/></svg>